PathFileType	4	(X/Y/Z)	C:\Users\Biomechanik\SynologyDrive\AlexP\Athlete_03\Athlete_3_25_03_31\Walking_10\marker_experimental.trc
DataRate	CameraRate	NumFrames	NumMarkers	Units	OrigDataRate	OrigDataStartFrame	OrigNumFrames
200.000000	200.000000	4	53	mm	200.000000	167	223
Frame#	Time	GLAB			RFHD			LFHD			C7			T6			SPINMOL			SPINM2			SPINM3			T12			BELTOL			BELT2			BELT3			SACROL			SACR2			SACR3			LTHOL			LTH2			LTH3			LSHAOL			LSHA2			LSHA3			LHEE			LTOE			LM5			RTHOL			RTH2			RTH3			RSHAOL			RSHA2			RSHA3			RHEE			RTOE			RM5			STRN			XIPH			LACR			LUAOL			LUA2			LUA3			LLAOL			LLA2			LLA3			LWRR			LWRU			RACR			RUAOL			RUA2			RUA3			RLAOL			RLA2			RLA3			RWRR			RWRU			
		X1	Y1	Z1	X2	Y2	Z2	X3	Y3	Z3	X4	Y4	Z4	X5	Y5	Z5	X6	Y6	Z6	X7	Y7	Z7	X8	Y8	Z8	X9	Y9	Z9	X10	Y10	Z10	X11	Y11	Z11	X12	Y12	Z12	X13	Y13	Z13	X14	Y14	Z14	X15	Y15	Z15	X16	Y16	Z16	X17	Y17	Z17	X18	Y18	Z18	X19	Y19	Z19	X20	Y20	Z20	X21	Y21	Z21	X22	Y22	Z22	X23	Y23	Z23	X24	Y24	Z24	X25	Y25	Z25	X26	Y26	Z26	X27	Y27	Z27	X28	Y28	Z28	X29	Y29	Z29	X30	Y30	Z30	X31	Y31	Z31	X32	Y32	Z32	X33	Y33	Z33	X34	Y34	Z34	X35	Y35	Z35	X36	Y36	Z36	X37	Y37	Z37	X38	Y38	Z38	X39	Y39	Z39	X40	Y40	Z40	X41	Y41	Z41	X42	Y42	Z42	X43	Y43	Z43	X44	Y44	Z44	X45	Y45	Z45	X46	Y46	Z46	X47	Y47	Z47	X48	Y48	Z48	X49	Y49	Z49	X50	Y50	Z50	X51	Y51	Z51	X52	Y52	Z52	X53	Y53	Z53	

168	0.835	686.1552124023436	1597.425415039062	163.3980255126954	636.5172729492186	1630.99072265625	225.1616821289064	648.7431030273436	1621.810302734375	87.08872985839855	451.8760681152343	1449.510498046875	151.5459594726563	394.4673767089843	1279.838134765625	150.918685913086	387.8140869140624	1239.783813476562	130.0584869384766	379.9886474609374	1233.384155273438	179.5376586914063	391.3780822753906	1176.014038085938	147.466537475586	413.8058776855468	1111.033569335938	152.6387329101563	379.8791503906249	1077.988647460938	136.3388214111329	377.1212158203124	1076.218383789062	186.8662567138672	372.9401245117186	1016.233337402344	157.8303222656251	388.8708801269531	966.2745971679688	143.085678100586	391.3981628417968	964.355224609375	194.1745910644532	375.9023437499999	905.7949829101562	167.6110534667969	489.1825866699218	682.994873046875	-8.908665657043366	438.4167480468749	628.5350341796875	18.70735359191903	487.0157775878906	623.6292724609375	7.27007770538339	468.7358093261719	326.2426147460938	15.10690021514901	417.1234436035156	266.7053833007812	27.12875366210945	467.2784423828125	264.8658447265626	24.15095329284676	387.5602416992188	77.5873718261719	119.7448348999024	604.8335571289062	45.24971389770511	125.1150207519532	558.6953125	30.75812530517582	22.02156829833995	540.7080078124999	687.7999877929688	372.9797668457032	611.6895141601561	657.0467529296875	390.3101196289064	571.9354858398436	634.7852172851562	371.4014282226564	532.4669189453124	412.2992858886719	363.8498840332032	524.2821655273436	334.6218566894532	355.3880310058595	492.9042968749999	369.7906799316407	341.050994873047	364.9905395507812	212.8426666259766	206.3039855957032	529.9112548828125	85.26538085937503	244.7860565185548	462.6706848144531	97.78519439697268	333.2105407714844	621.1342773437499	1349.754150390625	162.5615997314454	638.3095092773436	1206.42333984375	167.5955810546876	535.7599487304686	1406.247924804688	-18.46526527404775	543.0573730468749	1251.005126953125	-118.7854995727538	535.4099731445311	1188.509521484375	-138.0413360595702	579.6486206054686	1196.313110351562	-113.3510437011718	603.6831665039061	992.3212890625	-159.5385437011718	579.8990478515625	918.619384765625	-144.5279846191405	625.8918457031249	935.1421508789062	-154.7764129638671	672.395263671875	842.6643676757812	-148.9440765380858	707.8164672851562	859.008056640625	-79.44142150878893	529.200744628906	1407.945556640625	327.5717163085939	503.0270080566405	1262.500610351562	430.1268310546876	524.4049072265623	1200.711303710938	441.1238708496095	474.4112243652343	1206.935913085938	451.7171325683595	509.4834594726561	987.4142456054688	492.5322875976564	568.0187988281248	940.3798217773438	520.1040649414064	525.7450561523436	926.749755859375	497.2947082519532	570.3903198242186	849.048828125	512.8878173828126	609.0298461914061	835.3942260742188	442.136444091797	
169	0.84	693.0029907226561	1597.449829101562	163.8077697753907	643.3635864257811	1630.94677734375	225.6006622314454	655.6360473632811	1621.987670898438	87.51992034912121	458.6742553710936	1449.681640625	151.6754150390626	401.2020874023437	1280.0107421875	150.9790802001954	394.5024414062499	1239.9560546875	130.1223297119141	386.782745361328	1233.539916992188	179.5974731445313	398.0970458984374	1176.185546875	147.5302124023438	420.4955139160156	1111.206420898438	152.7399291992188	386.3583984374999	1078.13037109375	136.7537384033204	383.7764892578124	1076.36572265625	187.2839813232422	379.4771423339843	1016.380004882812	158.2496337890626	395.3504943847656	966.4486694335938	143.5298461914063	398.0971069335936	964.5364379882812	194.6363372802735	382.5128173828124	905.963623046875	168.0991210937501	493.0764770507812	683.5684204101562	-9.018003463745027	441.9107360839843	629.6077880859375	18.85155868530282	490.4080810546874	624.2258911132812	7.212702751159758	470.0404357910156	326.7256469726563	15.22131633758554	418.1664123535156	267.4168701171875	27.2398929595948	468.3233642578125	265.3683471679688	24.33407974243173	387.8881530761719	78.32952117919925	119.9570312500001	604.9561157226562	45.13711929321293	125.1657791137696	558.7664794921875	30.80137062072757	22.08553314208995	550.2202758789061	688.29150390625	373.2760009765626	621.6263427734374	658.1140747070312	389.4719543457032	581.7827758789061	635.6004638671875	371.337371826172	545.2933959960936	409.5822753906251	363.253631591797	539.4184570312499	331.7050476074219	354.4362792968751	506.8164978027343	366.0045471191407	340.5975646972657	382.8089904785156	205.2870635986328	206.1847839355469	552.1455688476562	83.54404449462893	244.4119873046876	484.7109069824218	93.76609802246097	332.9963989257814	627.8103027343749	1349.845947265625	162.6323699951173	644.7034301757811	1206.46484375	167.3940734863282	542.4566040039061	1406.623046875	-18.32961654663076	550.4885864257811	1251.71484375	-118.9402542114257	543.1904907226561	1189.207885742188	-138.263458251953	587.4375610351561	1197.266967773438	-113.6386413574218	613.8462524414061	993.6605834960938	-159.9071960449218	591.2221069335938	919.6388549804688	-144.7188720703124	636.9639282226561	936.868896484375	-154.9516754150389	684.9412841796875	845.162353515625	-148.7507171630858	720.12353515625	862.3661499023438	-79.35898590087878	535.8871459960935	1407.90625	327.7065734863282	508.6454772949218	1262.518798828125	430.1856079101564	529.6477050781248	1200.615356445312	441.2723388671876	479.5869750976561	1207.0869140625	451.4970092773439	512.8070678710935	987.553466796875	492.7157287597657	570.5116577148435	939.9650268554688	521.0018920898439	528.4641113281249	926.718505859375	497.7215576171876	572.0544433593749	848.5604858398438	513.8862915039064	611.3721313476561	834.4343872070312	443.6354064941407	
170	0.845	699.8631591796874	1597.40771484375	164.2365570068361	650.2236328124999	1630.83447265625	226.0597534179689	662.5360107421874	1622.093994140625	87.97209167480482	465.4868774414061	1449.783203125	151.8322296142579	407.9370727539062	1280.119506835938	151.074676513672	401.1867980957031	1240.064208984375	130.224334716797	393.5724182128905	1233.6337890625	179.6961212158204	404.8093261718749	1176.292846679688	147.6319580078126	427.1747436523437	1111.31298828125	152.877410888672	392.8242187499999	1078.20947265625	137.2146453857423	390.4254455566405	1076.449584960938	187.747299194336	385.9982299804686	1016.463439941406	158.7132263183594	401.8179321289062	966.5673828125	143.9893798828126	404.7663269042968	964.64453125	195.1203613281251	389.122589111328	906.0626831054688	168.5736236572266	497.0295104980468	684.0810546875	-9.12232494354239	445.4595031738281	630.6118774414062	18.9645423889161	493.8567810058593	624.7660522460938	7.150194644928069	471.3804931640625	327.1861572265626	15.34663677215585	419.2384643554688	268.1146850585938	27.36111640930184	469.3958435058594	265.8485717773438	24.52318382263192	388.2018432617188	79.06197357177737	120.1781311035157	605.0735473632812	45.02337265014652	125.2183914184571	558.8430786132812	30.84708213806156	22.15884017944346	559.6549682617186	688.6967163085938	373.5280761718751	631.4484252929686	659.0730590820312	388.5941772460939	591.5308837890624	636.3267211914062	371.213104248047	558.0842895507811	406.7648925781251	362.6300354003907	554.5468139648436	328.7453613281251	353.5263671875001	520.7460937499999	362.1149902343751	340.1347045898439	400.8833312988281	197.6268310546875	206.1541900634766	574.426025390625	81.86869049072268	244.1157379150392	506.8726501464843	89.78914642333987	332.8687133789064	634.4976196289061	1349.85400390625	162.7252655029298	651.1107788085936	1206.422973632812	167.2122192382814	549.1635742187499	1406.919555664062	-18.16666412353506	557.9179077148436	1252.356689453125	-119.0647583007812	550.9587402343749	1189.8369140625	-138.4465026855468	595.2216796874999	1198.1552734375	-113.9005661010741	623.9884033203124	994.9680786132812	-160.254913330078	602.5286254882812	920.6412963867188	-144.8928985595702	648.0070190429686	938.578369140625	-155.1072692871093	697.4408569335938	847.6611938476562	-148.5347595214842	732.3696899414062	865.7278442382812	-79.25426483154284	542.5887451171873	1407.792358398438	327.8657531738282	514.2902832031248	1262.474609375	430.2585754394532	534.919250488281	1200.45556640625	441.4300842285157	484.7980346679686	1207.174438476562	451.3002319335939	516.156066894531	987.6384887695312	492.8934631347657	573.0162963867185	939.5167846679688	521.8986206054689	531.2276000976561	926.635498046875	498.135955810547	573.7448730468749	848.0422973632812	514.8672485351564	613.7643432617186	833.4586181640625	445.1423645019532	
171	0.85	706.7365112304686	1597.297241210938	164.6843566894533	657.0980224609374	1630.651977539062	226.5392150878907	669.4437255859374	1622.12744140625	88.44532012939466	472.313751220703	1449.812866210938	152.0159149169923	414.6735534667968	1280.162475585938	151.2044372558595	407.8686218261718	1240.1064453125	130.3630371093751	400.3588867187499	1233.663330078125	179.8320617675782	411.5164184570312	1176.334228515625	147.7700347900391	433.8453063964843	1111.3515625	153.0492706298829	399.2793273925781	1078.226684570312	137.7167510986329	397.0707397460936	1076.469970703125	188.2512817382813	392.5053710937499	1016.484558105469	159.2166748046876	408.2765808105468	966.631103515625	144.4632720947266	411.4064941406249	964.6815185546875	195.6262817382813	395.726837158203	906.0946655273438	169.0349273681641	501.0404052734374	684.5307006835938	-9.221452713012603	449.0624084472656	631.5452880859375	19.04846572875985	497.3619079589843	625.2474975585938	7.083898067474457	472.7512512207031	327.6225585937501	15.48277568817147	420.3348083496094	268.7985534667969	27.49817085266121	470.4904174804688	266.3050537109376	24.71766662597665	388.5010375976562	79.78108978271487	120.4089431762696	605.18701171875	44.91038894653324	125.2711410522462	558.9237060546875	30.89583206176761	22.24010276794444	569.0035400390624	689.0095825195312	373.7302551269532	641.1536254882811	659.9188842773438	387.6770935058595	601.1761474609374	636.9552001953125	371.0219726562501	570.8322753906249	403.8609313964844	361.9763793945314	569.6545410156249	325.7592773437501	352.6643066406251	534.6870117187499	358.1394348144532	339.6605834960939	419.2139282226562	189.8912811279297	206.2111053466798	596.7437744140625	80.25740051269536	243.9051818847657	529.1434936523436	85.88089752197268	332.8330993652345	641.1971435546874	1349.77685546875	162.8399047851564	657.5402832031249	1206.297607421875	167.0509338378907	555.8809204101561	1407.13671875	-17.97663307189931	565.3451538085936	1252.9296875	-119.1586303710937	558.7152709960936	1190.39453125	-138.5872497558593	603.0023803710936	1198.9775390625	-114.1360702514647	634.1105346679686	996.2431030273438	-160.5804748535155	613.816650390625	921.6263427734375	-145.0522918701171	659.0202026367186	940.2692260742188	-155.2422332763671	709.8899536132812	850.1578369140625	-148.2957763671874	744.5482177734375	869.0873413085938	-79.1248397827147	549.3059082031248	1407.602416992188	328.0488281250001	519.963439941406	1262.366088867188	430.3457031250001	540.2224121093748	1200.230590820312	441.5975646972657	490.0478515624999	1207.196655273438	451.127655029297	519.5377197265623	987.6688232421875	493.0669250488282	575.5429077148435	939.0349731445312	522.7908935546876	534.0448608398436	926.4988403320312	498.5378417968751	575.4696655273436	847.492919921875	515.8302001953126	616.2105712890624	832.4642944335938	446.6539611816407	
